<svg width="68" height="63" viewBox="0 0 68 63" fill="none" xmlns="http://www.w3.org/2000/svg">
  <g filter="url(#filter0_d_33_576)">
    <path
      d="M62.2333 29.5C62.2333 42.7174 50.6007 53.5 36.1642 53.5C21.7278 53.5 10.0952 42.7174 10.0952 29.5C10.0952 16.2826 21.7278 5.5 36.1642 5.5C50.6007 5.5 62.2333 16.2826 62.2333 29.5Z"
      fill="#3A3A3A" stroke="white" />
    <path
      d="M53.6834 31.7801C53.6834 31.7801 46.6867 39.2001 35.8075 39.2001C24.9283 39.2001 20.9902 33.3435 17.1863 31.7801C20.4467 28.8939 24.9283 21.1802 35.8075 21.1802C46.6867 21.1802 53.6834 31.7801 53.6834 31.7801Z"
      fill="#F0F0F0" />
    <ellipse cx="40.1766" cy="26.745" rx="9.19611" ry="8.74497" fill="#3A3A3A" />
    <ellipse cx="40.464" cy="27.0101" rx="4.31068" ry="4.23999" fill="#F0F0F0" />
  </g>
  <defs>
    <filter id="filter0_d_33_576" x="0.795215" y="0.2" width="66.7382" height="62.6" filterUnits="userSpaceOnUse"
      color-interpolation-filters="sRGB">
      <feFlood flood-opacity="0" result="BackgroundImageFix" />
      <feColorMatrix in="SourceAlpha" type="matrix" values="0 0 0 0 0 0 0 0 0 0 0 0 0 0 0 0 0 0 127 0"
        result="hardAlpha" />
      <feOffset dx="-2" dy="2" />
      <feGaussianBlur stdDeviation="3.4" />
      <feComposite in2="hardAlpha" operator="out" />
      <feColorMatrix type="matrix" values="0 0 0 0 0 0 0 0 0 0 0 0 0 0 0 0 0 0 0.25 0" />
      <feBlend mode="normal" in2="BackgroundImageFix" result="effect1_dropShadow_33_576" />
      <feBlend mode="normal" in="SourceGraphic" in2="effect1_dropShadow_33_576" result="shape" />
    </filter>
  </defs>
</svg>