<svg width="46" height="42" viewBox="0 0 46 42" fill="none" xmlns="http://www.w3.org/2000/svg">
  <path
    d="M45.2963 20.9643C45.2963 32.2687 35.2895 41.4954 22.8648 41.4954C10.44 41.4954 0.433234 32.2687 0.433234 20.9643C0.433234 9.65994 10.44 0.433234 22.8648 0.433234C35.2895 0.433234 45.2963 9.65994 45.2963 20.9643Z"
    fill="#EFEFEF" stroke="#F0F0F0" stroke-width="0.866469" />
  <path
    d="M7.68532 24.4867C6.76701 23.833 5.8995 23.2332 5.03872 22.7982C5.5939 22.2623 6.17749 21.6304 6.80936 20.9462C10.1753 17.3015 14.9114 12.1733 24.0222 12.1733C29.6498 12.1733 34.2941 14.9002 37.5518 17.661C39.1778 19.0391 40.449 20.4179 41.3132 21.4518C41.7451 21.9685 42.0747 22.3983 42.2956 22.6977C42.3426 22.7615 42.3846 22.8193 42.4217 22.8707C42.3981 22.8934 42.3729 22.9176 42.346 22.9431C42.1265 23.1515 41.7981 23.4512 41.3675 23.8118C40.5059 24.5333 39.2365 25.4974 37.6108 26.4618C34.3581 28.3914 29.6934 30.3145 24.0222 30.3145C18.3393 30.3145 14.4843 28.7963 11.5493 27.0788C10.2452 26.3157 9.12256 25.5134 8.08801 24.7741C7.95234 24.6771 7.81818 24.5812 7.68532 24.4867Z"
    fill="#4C4C4C" stroke="#F0F0F0" stroke-width="0.866469" />
  <path
    d="M37.9795 17.61C37.9795 22.4427 33.8289 26.4011 28.6571 26.4011C23.4853 26.4011 19.3347 22.4427 19.3347 17.61C19.3347 12.7774 23.4853 8.81898 28.6571 8.81898C33.8289 8.81898 37.9795 12.7774 37.9795 17.61Z"
    fill="#EFEFEF" stroke="#F0F0F0" stroke-width="0.866469" />
  <line x1="28.9781" y1="12.8012" x2="28.9781" y2="22.8012" stroke="#4C4C4C" stroke-width="2" />
  <line x1="23.6156" y1="17.8012" x2="34.5221" y2="17.8012" stroke="#4C4C4C" stroke-width="2" />
</svg>