<svg width="470" height="89" viewBox="0 0 470 89" fill="none" xmlns="http://www.w3.org/2000/svg">
  <circle cx="435.583" cy="49.5834" r="33.5834" fill="#E3E3E3" />
  <path
    d="M465.137 52.7179C465.137 52.7179 454.235 65.2557 437.284 65.2557C420.332 65.2557 414.196 55.3595 408.269 52.7179C413.349 47.841 420.332 34.8068 437.284 34.8068C454.235 34.8068 465.137 52.7179 465.137 52.7179Z"
    fill="#4C4C4C" />
  <ellipse cx="444.091" cy="44.2102" rx="14.3289" ry="14.7767" fill="#E3E3E3" />
  <ellipse cx="444.539" cy="44.6577" rx="6.71667" ry="7.16445" fill="#4C4C4C" />
  <path
    d="M12.6442 58L0.880947 21.4148H8.96493L17.5671 49.5533H14.4061L22.801 21.4148H29.1749L37.5698 49.5533H34.4606L43.0109 21.4148H51.0431L39.2798 58H32.9059L24.4592 29.8615H27.4648L19.0181 58H12.6442ZM54.3053 58V21.4148H62.4411V58H54.3053ZM77.312 58V21.933H85.4478V58H77.312ZM65.8597 28.5142V21.4148H96.9001V28.5142H65.8597ZM100.303 58V21.4148H106.003L108.439 28.7215V58H100.303ZM125.54 58L103.982 30.3797L106.003 21.4148L127.561 49.0351L125.54 58ZM125.54 58L123.363 50.6933V21.4148H131.499V58H125.54ZM137.421 58V21.4148H145.557V58H137.421ZM143.64 58V50.9524H163.694V58H143.64ZM143.64 42.713V35.9245H161.88V42.713H143.64ZM143.64 28.4106V21.4148H163.435V28.4106H143.64ZM178.238 58.57C175.232 58.57 172.641 58.0864 170.465 57.1191C168.323 56.1172 166.354 54.6144 164.557 52.6107L169.843 47.3768C171.018 48.7242 172.313 49.7778 173.729 50.5379C175.18 51.2634 176.856 51.6261 178.756 51.6261C180.483 51.6261 181.813 51.3152 182.746 50.6933C183.714 50.0715 184.197 49.2078 184.197 48.1023C184.197 47.1004 183.886 46.2886 183.264 45.6667C182.643 45.0449 181.813 44.5094 180.777 44.0603C179.775 43.6112 178.652 43.1794 177.409 42.7648C176.2 42.3502 174.99 41.8839 173.781 41.3657C172.572 40.8129 171.449 40.1392 170.413 39.3447C169.411 38.5155 168.599 37.4964 167.977 36.2873C167.356 35.0436 167.045 33.489 167.045 31.6234C167.045 29.3779 167.58 27.4432 168.651 25.8195C169.757 24.1958 171.277 22.9694 173.211 22.1403C175.146 21.2766 177.374 20.8448 179.896 20.8448C182.453 20.8448 184.784 21.2939 186.892 22.1921C189.034 23.0903 190.796 24.3168 192.178 25.8714L186.892 31.1052C185.786 29.9652 184.664 29.1188 183.524 28.566C182.418 28.0133 181.157 27.7369 179.741 27.7369C178.324 27.7369 177.201 28.0133 176.372 28.566C175.543 29.0842 175.129 29.8443 175.129 30.8461C175.129 31.7789 175.44 32.5389 176.061 33.1262C176.683 33.679 177.495 34.1626 178.497 34.5772C179.533 34.9917 180.656 35.4063 181.865 35.8209C183.109 36.2354 184.335 36.7191 185.545 37.2718C186.754 37.8246 187.859 38.5328 188.861 39.3965C189.897 40.2256 190.727 41.2966 191.348 42.6093C191.97 43.8876 192.281 45.4767 192.281 47.3768C192.281 50.8661 191.037 53.6125 188.55 55.6163C186.063 57.5854 182.625 58.57 178.238 58.57ZM206.399 58.57C203.393 58.57 200.802 58.0864 198.625 57.1191C196.484 56.1172 194.514 54.6144 192.718 52.6107L198.004 47.3768C199.178 48.7242 200.474 49.7778 201.89 50.5379C203.341 51.2634 205.017 51.6261 206.917 51.6261C208.644 51.6261 209.974 51.3152 210.907 50.6933C211.874 50.0715 212.358 49.2078 212.358 48.1023C212.358 47.1004 212.047 46.2886 211.425 45.6667C210.803 45.0449 209.974 44.5094 208.938 44.0603C207.936 43.6112 206.813 43.1794 205.569 42.7648C204.36 42.3502 203.151 41.8839 201.942 41.3657C200.733 40.8129 199.61 40.1392 198.574 39.3447C197.572 38.5155 196.76 37.4964 196.138 36.2873C195.516 35.0436 195.205 33.489 195.205 31.6234C195.205 29.3779 195.741 27.4432 196.812 25.8195C197.917 24.1958 199.437 22.9694 201.372 22.1403C203.307 21.2766 205.535 20.8448 208.057 20.8448C210.613 20.8448 212.945 21.2939 215.053 22.1921C217.194 23.0903 218.956 24.3168 220.338 25.8714L215.053 31.1052C213.947 29.9652 212.824 29.1188 211.684 28.566C210.579 28.0133 209.318 27.7369 207.901 27.7369C206.485 27.7369 205.362 28.0133 204.533 28.566C203.704 29.0842 203.289 29.8443 203.289 30.8461C203.289 31.7789 203.6 32.5389 204.222 33.1262C204.844 33.679 205.656 34.1626 206.658 34.5772C207.694 34.9917 208.817 35.4063 210.026 35.8209C211.27 36.2354 212.496 36.7191 213.705 37.2718C214.914 37.8246 216.02 38.5328 217.022 39.3965C218.058 40.2256 218.887 41.2966 219.509 42.6093C220.131 43.8876 220.442 45.4767 220.442 47.3768C220.442 50.8661 219.198 53.6125 216.711 55.6163C214.223 57.5854 210.786 58.57 206.399 58.57ZM233.212 58V21.4148H241.348V58H233.212ZM239.483 58V50.8488H257.568V58H239.483ZM261.12 58V21.4148H269.256V58H261.12ZM267.339 58V50.9524H287.393V58H267.339ZM267.339 42.713V35.9245H285.579V42.713H267.339ZM267.339 28.4106V21.4148H287.134V28.4106H267.339ZM291.862 58V21.4148H297.562L299.998 28.7215V58H291.862ZM317.098 58L295.541 30.3797L297.562 21.4148L319.119 49.0351L317.098 58ZM317.098 58L314.922 50.6933V21.4148H323.058V58H317.098ZM339.257 58.57C336.252 58.57 333.661 58.0864 331.484 57.1191C329.342 56.1172 327.373 54.6144 325.577 52.6107L330.862 47.3768C332.037 48.7242 333.332 49.7778 334.749 50.5379C336.2 51.2634 337.875 51.6261 339.775 51.6261C341.503 51.6261 342.833 51.3152 343.765 50.6933C344.733 50.0715 345.216 49.2078 345.216 48.1023C345.216 47.1004 344.906 46.2886 344.284 45.6667C343.662 45.0449 342.833 44.5094 341.796 44.0603C340.794 43.6112 339.672 43.1794 338.428 42.7648C337.219 42.3502 336.01 41.8839 334.801 41.3657C333.591 40.8129 332.469 40.1392 331.432 39.3447C330.43 38.5155 329.619 37.4964 328.997 36.2873C328.375 35.0436 328.064 33.489 328.064 31.6234C328.064 29.3779 328.599 27.4432 329.67 25.8195C330.776 24.1958 332.296 22.9694 334.231 22.1403C336.165 21.2766 338.393 20.8448 340.915 20.8448C343.472 20.8448 345.804 21.2939 347.911 22.1921C350.053 23.0903 351.815 24.3168 353.197 25.8714L347.911 31.1052C346.806 29.9652 345.683 29.1188 344.543 28.566C343.437 28.0133 342.176 27.7369 340.76 27.7369C339.343 27.7369 338.221 28.0133 337.392 28.566C336.562 29.0842 336.148 29.8443 336.148 30.8461C336.148 31.7789 336.459 32.5389 337.081 33.1262C337.703 33.679 338.514 34.1626 339.516 34.5772C340.553 34.9917 341.675 35.4063 342.885 35.8209C344.128 36.2354 345.355 36.7191 346.564 37.2718C347.773 37.8246 348.878 38.5328 349.88 39.3965C350.917 40.2256 351.746 41.2966 352.368 42.6093C352.99 43.8876 353.3 45.4767 353.3 47.3768C353.3 50.8661 352.057 53.6125 349.569 55.6163C347.082 57.5854 343.645 58.57 339.257 58.57Z"
    fill="#FCFCFC" />
  <path
    d="M3.773 83V70.4H11.063V71.813H5.258V75.782H9.236V77.186H5.258V81.587H11.45V83H3.773ZM13.6138 83V73.802H15.0538V75.503L14.8378 75.359C15.0058 74.795 15.2428 74.36 15.5488 74.054C15.8548 73.742 16.2508 73.586 16.7368 73.586C17.2588 73.586 17.6668 73.736 17.9608 74.036C18.2548 74.33 18.4558 74.651 18.5638 74.999C18.7738 74.615 19.0468 74.285 19.3828 74.009C19.7248 73.727 20.1418 73.586 20.6338 73.586C21.3958 73.586 21.9598 73.835 22.3258 74.333C22.6918 74.831 22.8748 75.632 22.8748 76.736V83H21.4258V77.366C21.4258 76.556 21.3568 75.953 21.2188 75.557C21.0868 75.155 20.7898 74.954 20.3278 74.954C20.0038 74.954 19.7428 75.068 19.5448 75.296C19.3468 75.518 19.2028 75.821 19.1128 76.205C19.0228 76.583 18.9778 77.003 18.9778 77.465V83H17.5288V77.177C17.5288 76.787 17.5048 76.424 17.4568 76.088C17.4088 75.746 17.3098 75.473 17.1598 75.269C17.0098 75.059 16.7818 74.954 16.4758 74.954C16.1578 74.954 15.8938 75.068 15.6838 75.296C15.4738 75.518 15.3148 75.821 15.2068 76.205C15.1048 76.583 15.0538 77.003 15.0538 77.465V83H13.6138ZM25.2726 86.645V73.802H26.7396V74.594C27.0216 74.33 27.3516 74.096 27.7296 73.892C28.1076 73.688 28.6086 73.586 29.2326 73.586C30.0606 73.586 30.7716 73.784 31.3656 74.18C31.9656 74.57 32.4276 75.125 32.7516 75.845C33.0756 76.565 33.2376 77.414 33.2376 78.392C33.2376 79.418 33.0666 80.291 32.7246 81.011C32.3886 81.725 31.9206 82.271 31.3206 82.649C30.7266 83.027 30.0486 83.216 29.2866 83.216C28.6146 83.216 28.0836 83.108 27.6936 82.892C27.3096 82.67 26.9916 82.409 26.7396 82.109V85.934L25.2726 86.645ZM29.1066 81.866C29.9406 81.866 30.5856 81.569 31.0416 80.975C31.4976 80.375 31.7256 79.514 31.7256 78.392C31.7256 77.342 31.4916 76.502 31.0236 75.872C30.5556 75.242 29.8956 74.927 29.0436 74.927C28.5396 74.927 28.0866 75.041 27.6846 75.269C27.2886 75.497 26.9736 75.815 26.7396 76.223V80.57C27.0216 80.936 27.3516 81.245 27.7296 81.497C28.1076 81.743 28.5666 81.866 29.1066 81.866ZM39.6314 83.216C38.7734 83.216 38.0234 83.027 37.3814 82.649C36.7394 82.271 36.2384 81.725 35.8784 81.011C35.5244 80.291 35.3474 79.424 35.3474 78.41C35.3474 77.408 35.5244 76.547 35.8784 75.827C36.2384 75.107 36.7394 74.555 37.3814 74.171C38.0234 73.781 38.7734 73.586 39.6314 73.586C40.4954 73.586 41.2484 73.775 41.8904 74.153C42.5384 74.531 43.0394 75.08 43.3934 75.8C43.7474 76.52 43.9244 77.384 43.9244 78.392C43.9244 79.394 43.7474 80.255 43.3934 80.975C43.0394 81.695 42.5384 82.25 41.8904 82.64C41.2484 83.024 40.4954 83.216 39.6314 83.216ZM39.6314 81.866C40.5194 81.866 41.2034 81.557 41.6834 80.939C42.1694 80.321 42.4124 79.472 42.4124 78.392C42.4124 77.318 42.1784 76.472 41.7104 75.854C41.2424 75.236 40.5494 74.927 39.6314 74.927C38.7254 74.927 38.0354 75.23 37.5614 75.836C37.0874 76.436 36.8504 77.294 36.8504 78.41C36.8504 79.478 37.0874 80.321 37.5614 80.939C38.0354 81.557 38.7254 81.866 39.6314 81.866ZM47.5462 83L45.2602 73.802H46.7002L48.1132 79.922C48.1372 80.024 48.1612 80.141 48.1852 80.273C48.2092 80.399 48.2302 80.528 48.2482 80.66C48.2782 80.498 48.3022 80.36 48.3202 80.246C48.3442 80.126 48.3712 80.003 48.4012 79.877L49.7422 73.802H50.9212L52.2712 79.895C52.3012 80.015 52.3312 80.147 52.3612 80.291C52.3912 80.429 52.4182 80.576 52.4422 80.732C52.4602 80.582 52.4812 80.441 52.5052 80.309C52.5352 80.171 52.5652 80.033 52.5952 79.895L53.9542 73.802H55.4032L53.1082 83H51.8302L50.4982 77.15C50.4742 77.03 50.4442 76.886 50.4082 76.718C50.3782 76.55 50.3482 76.385 50.3182 76.223C50.2882 76.397 50.2552 76.565 50.2192 76.727C50.1892 76.883 50.1622 77.015 50.1382 77.123L48.8422 83H47.5462ZM61.212 83.216C60.33 83.216 59.574 83 58.944 82.568C58.32 82.136 57.843 81.554 57.513 80.822C57.183 80.09 57.018 79.28 57.018 78.392C57.018 77.378 57.192 76.514 57.54 75.8C57.888 75.08 58.374 74.531 58.998 74.153C59.628 73.775 60.366 73.586 61.212 73.586C61.902 73.586 62.535 73.742 63.111 74.054C63.693 74.366 64.158 74.849 64.506 75.503C64.854 76.151 65.028 76.985 65.028 78.005C65.028 78.119 65.025 78.26 65.019 78.428C65.019 78.59 65.007 78.776 64.983 78.986H58.17V77.69H63.561C63.549 76.958 63.417 76.391 63.165 75.989C62.919 75.581 62.616 75.296 62.256 75.134C61.896 74.972 61.548 74.891 61.212 74.891C60.276 74.891 59.589 75.188 59.151 75.782C58.713 76.37 58.494 77.159 58.494 78.149C58.494 79.301 58.737 80.21 59.223 80.876C59.709 81.542 60.387 81.875 61.257 81.875C61.623 81.875 61.986 81.818 62.346 81.704C62.706 81.584 63.06 81.386 63.408 81.11L64.236 82.073C63.852 82.403 63.399 82.676 62.877 82.892C62.361 83.108 61.806 83.216 61.212 83.216ZM67.0928 83V81.695H69.0098V75.107H67.0928V73.802H70.4228V75.863L70.3148 75.602C70.5068 75.188 70.7978 74.831 71.1878 74.531C71.5838 74.231 72.0248 74 72.5108 73.838C73.0028 73.67 73.4918 73.586 73.9778 73.586C74.4458 73.586 74.8448 73.628 75.1748 73.712C75.5048 73.796 75.7688 73.898 75.9668 74.018V77.177H74.4998V74.45L74.9498 75.152C74.7998 75.11 74.6378 75.08 74.4638 75.062C74.2958 75.044 74.1188 75.035 73.9328 75.035C73.3268 75.035 72.7628 75.137 72.2408 75.341C71.7188 75.539 71.2988 75.833 70.9808 76.223C70.6688 76.613 70.5128 77.09 70.5128 77.654V81.695H73.2218V83H67.0928ZM81.9196 82.73V73.802H83.3866V82.73H81.9196ZM79.3816 83V81.695H85.9246V83H79.3816ZM79.3816 75.107V73.802H82.7296V75.107H79.3816ZM82.6486 72.065C82.3906 72.065 82.1716 71.975 81.9916 71.795C81.8116 71.615 81.7216 71.393 81.7216 71.129C81.7216 70.859 81.8116 70.634 81.9916 70.454C82.1716 70.268 82.3906 70.175 82.6486 70.175C82.9246 70.175 83.1496 70.268 83.3236 70.454C83.4976 70.634 83.5846 70.859 83.5846 71.129C83.5846 71.393 83.4976 71.615 83.3236 71.795C83.1496 71.975 82.9246 72.065 82.6486 72.065ZM89.4294 83V73.802H90.8964V75.521L90.6624 75.206C90.8064 74.87 91.0104 74.582 91.2744 74.342C91.5384 74.102 91.8504 73.916 92.2104 73.784C92.5704 73.652 92.9694 73.586 93.4074 73.586C94.1394 73.586 94.7574 73.727 95.2614 74.009C95.7714 74.291 96.1554 74.741 96.4134 75.359C96.6774 75.971 96.8094 76.775 96.8094 77.771V83H95.3514V77.492C95.3514 76.55 95.1414 75.887 94.7214 75.503C94.3074 75.119 93.7944 74.927 93.1824 74.927C92.7384 74.927 92.3424 75.005 91.9944 75.161C91.6524 75.317 91.3824 75.578 91.1844 75.944C90.9924 76.31 90.8964 76.814 90.8964 77.456V83H89.4294ZM103.122 86.789L102.411 85.619C103.371 85.565 104.109 85.43 104.625 85.214C105.141 85.004 105.495 84.728 105.687 84.386C105.885 84.05 105.984 83.669 105.984 83.243V82.055C105.72 82.421 105.39 82.706 104.994 82.91C104.604 83.114 104.094 83.216 103.464 83.216C102.768 83.216 102.126 83.036 101.538 82.676C100.95 82.316 100.479 81.779 100.125 81.065C99.7712 80.351 99.5942 79.46 99.5942 78.392C99.5942 77.384 99.7622 76.523 100.098 75.809C100.434 75.089 100.896 74.54 101.484 74.162C102.072 73.778 102.753 73.586 103.527 73.586C103.989 73.586 104.382 73.643 104.706 73.757C105.03 73.871 105.294 74.009 105.498 74.171C105.708 74.327 105.87 74.468 105.984 74.594V73.802H107.442V82.649C107.442 83.411 107.334 84.05 107.118 84.566C106.902 85.088 106.599 85.505 106.209 85.817C105.819 86.135 105.36 86.369 104.832 86.519C104.31 86.669 103.74 86.759 103.122 86.789ZM103.77 81.866C104.202 81.866 104.619 81.746 105.021 81.506C105.423 81.26 105.744 80.921 105.984 80.489V76.205C105.744 75.797 105.414 75.482 104.994 75.26C104.58 75.038 104.172 74.927 103.77 74.927C102.882 74.927 102.213 75.227 101.763 75.827C101.319 76.421 101.097 77.276 101.097 78.392C101.097 79.49 101.346 80.345 101.844 80.957C102.348 81.563 102.99 81.866 103.77 81.866ZM121.427 83V70.4H125.252C126.266 70.4 127.067 70.586 127.655 70.958C128.243 71.324 128.663 71.795 128.915 72.371C129.167 72.941 129.293 73.535 129.293 74.153C129.293 74.585 129.218 75.023 129.068 75.467C128.924 75.905 128.69 76.307 128.366 76.673C128.048 77.039 127.631 77.336 127.115 77.564C126.605 77.786 125.984 77.897 125.252 77.897H122.912V83H121.427ZM122.912 76.547H125.36C125.972 76.547 126.458 76.427 126.818 76.187C127.184 75.947 127.445 75.644 127.601 75.278C127.763 74.906 127.844 74.531 127.844 74.153C127.844 73.811 127.772 73.454 127.628 73.082C127.49 72.71 127.241 72.395 126.881 72.137C126.521 71.879 126.014 71.75 125.36 71.75H122.912V76.547ZM136.083 83.216C135.201 83.216 134.445 83 133.815 82.568C133.191 82.136 132.714 81.554 132.384 80.822C132.054 80.09 131.889 79.28 131.889 78.392C131.889 77.378 132.063 76.514 132.411 75.8C132.759 75.08 133.245 74.531 133.869 74.153C134.499 73.775 135.237 73.586 136.083 73.586C136.773 73.586 137.406 73.742 137.982 74.054C138.564 74.366 139.029 74.849 139.377 75.503C139.725 76.151 139.899 76.985 139.899 78.005C139.899 78.119 139.896 78.26 139.89 78.428C139.89 78.59 139.878 78.776 139.854 78.986H133.041V77.69H138.432C138.42 76.958 138.288 76.391 138.036 75.989C137.79 75.581 137.487 75.296 137.127 75.134C136.767 74.972 136.419 74.891 136.083 74.891C135.147 74.891 134.46 75.188 134.022 75.782C133.584 76.37 133.365 77.159 133.365 78.149C133.365 79.301 133.608 80.21 134.094 80.876C134.58 81.542 135.258 81.875 136.128 81.875C136.494 81.875 136.857 81.818 137.217 81.704C137.577 81.584 137.931 81.386 138.279 81.11L139.107 82.073C138.723 82.403 138.27 82.676 137.748 82.892C137.232 83.108 136.677 83.216 136.083 83.216ZM146.589 83.216C145.731 83.216 144.981 83.027 144.339 82.649C143.697 82.271 143.196 81.725 142.836 81.011C142.482 80.291 142.305 79.424 142.305 78.41C142.305 77.408 142.482 76.547 142.836 75.827C143.196 75.107 143.697 74.555 144.339 74.171C144.981 73.781 145.731 73.586 146.589 73.586C147.453 73.586 148.206 73.775 148.848 74.153C149.496 74.531 149.997 75.08 150.351 75.8C150.705 76.52 150.882 77.384 150.882 78.392C150.882 79.394 150.705 80.255 150.351 80.975C149.997 81.695 149.496 82.25 148.848 82.64C148.206 83.024 147.453 83.216 146.589 83.216ZM146.589 81.866C147.477 81.866 148.161 81.557 148.641 80.939C149.127 80.321 149.37 79.472 149.37 78.392C149.37 77.318 149.136 76.472 148.668 75.854C148.2 75.236 147.507 74.927 146.589 74.927C145.683 74.927 144.993 75.23 144.519 75.836C144.045 76.436 143.808 77.294 143.808 78.41C143.808 79.478 144.045 80.321 144.519 80.939C144.993 81.557 145.683 81.866 146.589 81.866ZM153.622 86.645V73.802H155.089V74.594C155.371 74.33 155.701 74.096 156.079 73.892C156.457 73.688 156.958 73.586 157.582 73.586C158.41 73.586 159.121 73.784 159.715 74.18C160.315 74.57 160.777 75.125 161.101 75.845C161.425 76.565 161.587 77.414 161.587 78.392C161.587 79.418 161.416 80.291 161.074 81.011C160.738 81.725 160.27 82.271 159.67 82.649C159.076 83.027 158.398 83.216 157.636 83.216C156.964 83.216 156.433 83.108 156.043 82.892C155.659 82.67 155.341 82.409 155.089 82.109V85.934L153.622 86.645ZM157.456 81.866C158.29 81.866 158.935 81.569 159.391 80.975C159.847 80.375 160.075 79.514 160.075 78.392C160.075 77.342 159.841 76.502 159.373 75.872C158.905 75.242 158.245 74.927 157.393 74.927C156.889 74.927 156.436 75.041 156.034 75.269C155.638 75.497 155.323 75.815 155.089 76.223V80.57C155.371 80.936 155.701 81.245 156.079 81.497C156.457 81.743 156.916 81.866 157.456 81.866ZM167.252 83V70.463L168.71 70.004V83H167.252ZM164.678 83V81.695H171.284V83H164.678ZM165.029 71.309L164.372 70.004H168.71L168.215 71.309H165.029ZM178.866 83.216C177.984 83.216 177.228 83 176.598 82.568C175.974 82.136 175.497 81.554 175.167 80.822C174.837 80.09 174.672 79.28 174.672 78.392C174.672 77.378 174.846 76.514 175.194 75.8C175.542 75.08 176.028 74.531 176.652 74.153C177.282 73.775 178.02 73.586 178.866 73.586C179.556 73.586 180.189 73.742 180.765 74.054C181.347 74.366 181.812 74.849 182.16 75.503C182.508 76.151 182.682 76.985 182.682 78.005C182.682 78.119 182.679 78.26 182.673 78.428C182.673 78.59 182.661 78.776 182.637 78.986H175.824V77.69H181.215C181.203 76.958 181.071 76.391 180.819 75.989C180.573 75.581 180.27 75.296 179.91 75.134C179.55 74.972 179.202 74.891 178.866 74.891C177.93 74.891 177.243 75.188 176.805 75.782C176.367 76.37 176.148 77.159 176.148 78.149C176.148 79.301 176.391 80.21 176.877 80.876C177.363 81.542 178.041 81.875 178.911 81.875C179.277 81.875 179.64 81.818 180 81.704C180.36 81.584 180.714 81.386 181.062 81.11L181.89 82.073C181.506 82.403 181.053 82.676 180.531 82.892C180.015 83.108 179.46 83.216 178.866 83.216ZM197.287 83L195.001 73.802H196.441L197.854 79.922C197.878 80.024 197.902 80.141 197.926 80.273C197.95 80.399 197.971 80.528 197.989 80.66C198.019 80.498 198.043 80.36 198.061 80.246C198.085 80.126 198.112 80.003 198.142 79.877L199.483 73.802H200.662L202.012 79.895C202.042 80.015 202.072 80.147 202.102 80.291C202.132 80.429 202.159 80.576 202.183 80.732C202.201 80.582 202.222 80.441 202.246 80.309C202.276 80.171 202.306 80.033 202.336 79.895L203.695 73.802H205.144L202.849 83H201.571L200.239 77.15C200.215 77.03 200.185 76.886 200.149 76.718C200.119 76.55 200.089 76.385 200.059 76.223C200.029 76.397 199.996 76.565 199.96 76.727C199.93 76.883 199.903 77.015 199.879 77.123L198.583 83H197.287ZM210.269 82.73V73.802H211.736V82.73H210.269ZM207.731 83V81.695H214.274V83H207.731ZM207.731 75.107V73.802H211.079V75.107H207.731ZM210.998 72.065C210.74 72.065 210.521 71.975 210.341 71.795C210.161 71.615 210.071 71.393 210.071 71.129C210.071 70.859 210.161 70.634 210.341 70.454C210.521 70.268 210.74 70.175 210.998 70.175C211.274 70.175 211.499 70.268 211.673 70.454C211.847 70.634 211.934 70.859 211.934 71.129C211.934 71.393 211.847 71.615 211.673 71.795C211.499 71.975 211.274 72.065 210.998 72.065ZM222.297 83.216C221.469 83.216 220.875 83.009 220.515 82.595C220.161 82.181 219.984 81.629 219.984 80.939V75.107H217.869V73.802H219.984V70.724L221.451 70.004V73.802H224.538V75.107H221.451V80.435C221.451 80.717 221.481 80.966 221.541 81.182C221.607 81.392 221.736 81.56 221.928 81.686C222.12 81.806 222.405 81.866 222.783 81.866C223.221 81.866 223.569 81.809 223.827 81.695C224.085 81.581 224.307 81.467 224.493 81.353L224.322 82.802C224.082 82.928 223.809 83.027 223.503 83.099C223.203 83.177 222.801 83.216 222.297 83.216ZM228.475 83V70.688L229.942 70.004V74.792C230.506 73.988 231.343 73.586 232.453 73.586C233.185 73.586 233.803 73.727 234.307 74.009C234.817 74.291 235.201 74.741 235.459 75.359C235.723 75.971 235.855 76.775 235.855 77.771V83H234.397V77.492C234.397 76.55 234.187 75.887 233.767 75.503C233.347 75.119 232.834 74.927 232.228 74.927C231.79 74.927 231.397 75.005 231.049 75.161C230.707 75.317 230.437 75.578 230.239 75.944C230.041 76.31 229.942 76.814 229.942 77.456V83H228.475ZM250.703 78.617V76.628L255.527 70.4H257.21L250.703 78.617ZM249.776 83V70.4H251.261V83H249.776ZM256.364 83L252.548 75.728L253.556 74.477L258.056 83H256.364ZM260.562 83V73.802H262.029V75.521L261.795 75.206C261.939 74.87 262.143 74.582 262.407 74.342C262.671 74.102 262.983 73.916 263.343 73.784C263.703 73.652 264.102 73.586 264.54 73.586C265.272 73.586 265.89 73.727 266.394 74.009C266.904 74.291 267.288 74.741 267.546 75.359C267.81 75.971 267.942 76.775 267.942 77.771V83H266.484V77.492C266.484 76.55 266.274 75.887 265.854 75.503C265.44 75.119 264.927 74.927 264.315 74.927C263.871 74.927 263.475 75.005 263.127 75.161C262.785 75.317 262.515 75.578 262.317 75.944C262.125 76.31 262.029 76.814 262.029 77.456V83H260.562ZM274.939 83.216C274.081 83.216 273.331 83.027 272.689 82.649C272.047 82.271 271.546 81.725 271.186 81.011C270.832 80.291 270.655 79.424 270.655 78.41C270.655 77.408 270.832 76.547 271.186 75.827C271.546 75.107 272.047 74.555 272.689 74.171C273.331 73.781 274.081 73.586 274.939 73.586C275.803 73.586 276.556 73.775 277.198 74.153C277.846 74.531 278.347 75.08 278.701 75.8C279.055 76.52 279.232 77.384 279.232 78.392C279.232 79.394 279.055 80.255 278.701 80.975C278.347 81.695 277.846 82.25 277.198 82.64C276.556 83.024 275.803 83.216 274.939 83.216ZM274.939 81.866C275.827 81.866 276.511 81.557 276.991 80.939C277.477 80.321 277.72 79.472 277.72 78.392C277.72 77.318 277.486 76.472 277.018 75.854C276.55 75.236 275.857 74.927 274.939 74.927C274.033 74.927 273.343 75.23 272.869 75.836C272.395 76.436 272.158 77.294 272.158 78.41C272.158 79.478 272.395 80.321 272.869 80.939C273.343 81.557 274.033 81.866 274.939 81.866ZM282.854 83L280.568 73.802H282.008L283.421 79.922C283.445 80.024 283.469 80.141 283.493 80.273C283.517 80.399 283.538 80.528 283.556 80.66C283.586 80.498 283.61 80.36 283.628 80.246C283.652 80.126 283.679 80.003 283.709 79.877L285.05 73.802H286.229L287.579 79.895C287.609 80.015 287.639 80.147 287.669 80.291C287.699 80.429 287.726 80.576 287.75 80.732C287.768 80.582 287.789 80.441 287.813 80.309C287.843 80.171 287.873 80.033 287.903 79.895L289.262 73.802H290.711L288.416 83H287.138L285.806 77.15C285.782 77.03 285.752 76.886 285.716 76.718C285.686 76.55 285.656 76.385 285.626 76.223C285.596 76.397 285.563 76.565 285.527 76.727C285.497 76.883 285.47 77.015 285.446 77.123L284.15 83H282.854ZM295.602 83V70.463L297.06 70.004V83H295.602ZM293.028 83V81.695H299.634V83H293.028ZM293.379 71.309L292.722 70.004H297.06L296.565 71.309H293.379ZM307.215 83.216C306.333 83.216 305.577 83 304.947 82.568C304.323 82.136 303.846 81.554 303.516 80.822C303.186 80.09 303.021 79.28 303.021 78.392C303.021 77.378 303.195 76.514 303.543 75.8C303.891 75.08 304.377 74.531 305.001 74.153C305.631 73.775 306.369 73.586 307.215 73.586C307.905 73.586 308.538 73.742 309.114 74.054C309.696 74.366 310.161 74.849 310.509 75.503C310.857 76.151 311.031 76.985 311.031 78.005C311.031 78.119 311.028 78.26 311.022 78.428C311.022 78.59 311.01 78.776 310.986 78.986H304.173V77.69H309.564C309.552 76.958 309.42 76.391 309.168 75.989C308.922 75.581 308.619 75.296 308.259 75.134C307.899 74.972 307.551 74.891 307.215 74.891C306.279 74.891 305.592 75.188 305.154 75.782C304.716 76.37 304.497 77.159 304.497 78.149C304.497 79.301 304.74 80.21 305.226 80.876C305.712 81.542 306.39 81.875 307.26 81.875C307.626 81.875 307.989 81.818 308.349 81.704C308.709 81.584 309.063 81.386 309.411 81.11L310.239 82.073C309.855 82.403 309.402 82.676 308.88 82.892C308.364 83.108 307.809 83.216 307.215 83.216ZM317.443 83.216C316.627 83.216 315.922 83.021 315.328 82.631C314.734 82.235 314.278 81.677 313.96 80.957C313.642 80.237 313.483 79.382 313.483 78.392C313.483 77.384 313.645 76.523 313.969 75.809C314.293 75.089 314.749 74.54 315.337 74.162C315.931 73.778 316.627 73.586 317.425 73.586C318.025 73.586 318.526 73.673 318.928 73.847C319.33 74.021 319.663 74.222 319.927 74.45V70.715L321.394 70.004V83H319.927V82.226C319.681 82.49 319.357 82.721 318.955 82.919C318.559 83.117 318.055 83.216 317.443 83.216ZM317.623 81.866C318.133 81.866 318.583 81.755 318.973 81.533C319.369 81.305 319.687 80.981 319.927 80.561V76.151C319.753 75.869 319.48 75.596 319.108 75.332C318.736 75.062 318.238 74.927 317.614 74.927C316.768 74.927 316.12 75.227 315.67 75.827C315.22 76.421 314.995 77.276 314.995 78.392C314.995 79.046 315.1 79.637 315.31 80.165C315.52 80.687 315.82 81.101 316.21 81.407C316.606 81.713 317.077 81.866 317.623 81.866ZM327.734 86.789L327.023 85.619C327.983 85.565 328.721 85.43 329.237 85.214C329.753 85.004 330.107 84.728 330.299 84.386C330.497 84.05 330.596 83.669 330.596 83.243V82.055C330.332 82.421 330.002 82.706 329.606 82.91C329.216 83.114 328.706 83.216 328.076 83.216C327.38 83.216 326.738 83.036 326.15 82.676C325.562 82.316 325.091 81.779 324.737 81.065C324.383 80.351 324.206 79.46 324.206 78.392C324.206 77.384 324.374 76.523 324.71 75.809C325.046 75.089 325.508 74.54 326.096 74.162C326.684 73.778 327.365 73.586 328.139 73.586C328.601 73.586 328.994 73.643 329.318 73.757C329.642 73.871 329.906 74.009 330.11 74.171C330.32 74.327 330.482 74.468 330.596 74.594V73.802H332.054V82.649C332.054 83.411 331.946 84.05 331.73 84.566C331.514 85.088 331.211 85.505 330.821 85.817C330.431 86.135 329.972 86.369 329.444 86.519C328.922 86.669 328.352 86.759 327.734 86.789ZM328.382 81.866C328.814 81.866 329.231 81.746 329.633 81.506C330.035 81.26 330.356 80.921 330.596 80.489V76.205C330.356 75.797 330.026 75.482 329.606 75.26C329.192 75.038 328.784 74.927 328.382 74.927C327.494 74.927 326.825 75.227 326.375 75.827C325.931 76.421 325.709 77.276 325.709 78.392C325.709 79.49 325.958 80.345 326.456 80.957C326.96 81.563 327.602 81.866 328.382 81.866ZM339.303 83.216C338.421 83.216 337.665 83 337.035 82.568C336.411 82.136 335.934 81.554 335.604 80.822C335.274 80.09 335.109 79.28 335.109 78.392C335.109 77.378 335.283 76.514 335.631 75.8C335.979 75.08 336.465 74.531 337.089 74.153C337.719 73.775 338.457 73.586 339.303 73.586C339.993 73.586 340.626 73.742 341.202 74.054C341.784 74.366 342.249 74.849 342.597 75.503C342.945 76.151 343.119 76.985 343.119 78.005C343.119 78.119 343.116 78.26 343.11 78.428C343.11 78.59 343.098 78.776 343.074 78.986H336.261V77.69H341.652C341.64 76.958 341.508 76.391 341.256 75.989C341.01 75.581 340.707 75.296 340.347 75.134C339.987 74.972 339.639 74.891 339.303 74.891C338.367 74.891 337.68 75.188 337.242 75.782C336.804 76.37 336.585 77.159 336.585 78.149C336.585 79.301 336.828 80.21 337.314 80.876C337.8 81.542 338.478 81.875 339.348 81.875C339.714 81.875 340.077 81.818 340.437 81.704C340.797 81.584 341.151 81.386 341.499 81.11L342.327 82.073C341.943 82.403 341.49 82.676 340.968 82.892C340.452 83.108 339.897 83.216 339.303 83.216ZM349.81 83.243C349.462 83.243 349.174 83.123 348.946 82.883C348.718 82.637 348.604 82.358 348.604 82.046C348.604 81.734 348.718 81.455 348.946 81.209C349.174 80.963 349.462 80.84 349.81 80.84C350.152 80.84 350.437 80.963 350.665 81.209C350.899 81.455 351.016 81.734 351.016 82.046C351.016 82.358 350.899 82.637 350.665 82.883C350.437 83.123 350.152 83.243 349.81 83.243Z"
    fill="#FCFCFC" />
</svg>